<?xml version="1.0" standalone="no"?>
<!DOCTYPE svg PUBLIC "-//W3C//DTD SVG 20010904//EN"
 "http://www.w3.org/TR/2001/REC-SVG-20010904/DTD/svg10.dtd">
<svg version="1.0" xmlns="http://www.w3.org/2000/svg"
 width="512.000000pt" height="512.000000pt" viewBox="0 0 512.000000 512.000000"
 preserveAspectRatio="xMidYMid meet">
<metadata>
Created by potrace 1.11, written by Peter Selinger 2001-2013
</metadata>
<g transform="translate(0.000000,512.000000) scale(0.100000,-0.100000)"
fill="#000000" stroke="none">
<path d="M83 4941 c-30 -14 -48 -31 -63 -62 -21 -41 -22 -50 -17 -288 3 -135
8 -260 11 -277 25 -146 69 -278 137 -410 32 -63 104 -180 119 -194 3 -3 22
-26 42 -51 47 -59 108 -121 182 -185 l58 -51 -27 -52 c-76 -151 -160 -424
-191 -621 -10 -69 -18 -201 -21 -386 -6 -307 -5 -314 54 -368 35 -33 55 -35
287 -37 260 -2 336 -19 489 -108 154 -90 272 -238 332 -416 22 -65 32 -143 39
-316 18 -406 202 -708 521 -855 280 -129 726 -136 1017 -15 274 114 465 355
527 661 19 96 21 113 26 205 12 214 16 246 41 321 86 264 296 453 564 508 51
10 139 15 273 16 228 1 262 9 299 69 22 35 23 43 23 291 0 221 -6 344 -19 416
-2 11 -7 39 -11 64 -9 62 -51 232 -76 310 -25 75 -31 92 -88 220 l-42 95 58
50 c151 132 259 267 346 433 40 76 99 240 116 322 6 30 14 66 17 80 3 14 8
138 11 276 5 238 4 252 -15 291 -28 54 -65 77 -127 77 -41 1 -105 -21 -360
-122 -170 -68 -319 -128 -330 -133 -11 -4 -157 -63 -325 -129 -168 -66 -321
-128 -341 -136 -36 -15 -38 -15 -140 29 -101 43 -139 59 -149 62 -3 1 -41 13
-86 27 -82 27 -221 62 -284 72 -19 3 -48 8 -65 11 -170 28 -496 27 -675 -1
-190 -30 -431 -101 -590 -175 l-88 -41 -138 55 c-77 31 -362 144 -634 252
-665 265 -614 249 -687 216z m597 -504 c201 -79 404 -160 452 -178 49 -19 88
-36 87 -39 0 -3 -30 -27 -66 -55 -98 -75 -278 -258 -367 -373 -44 -56 -82
-102 -85 -102 -14 0 -181 180 -218 235 -71 106 -140 263 -157 360 -3 17 -9 50
-14 75 -11 63 -16 233 -5 227 4 -2 172 -70 373 -150z m4137 41 c-3 -62 -9
-126 -12 -143 -30 -153 -108 -332 -194 -445 -27 -36 -82 -96 -122 -135 l-72
-70 -26 34 c-150 195 -309 360 -444 461 -25 19 -46 37 -46 40 0 3 102 45 227
94 125 48 243 95 262 103 45 19 424 171 429 172 2 1 1 -50 -2 -111z m-2012
-132 c17 -4 46 -9 65 -12 19 -3 46 -8 60 -10 261 -45 558 -178 797 -356 93
-69 261 -224 288 -264 l14 -22 -57 20 c-144 50 -402 70 -552 42 -41 -8 -88
-17 -105 -20 -93 -17 -262 -95 -392 -181 -83 -54 -250 -225 -308 -315 -28 -43
-53 -78 -56 -78 -3 0 -27 34 -53 75 -53 84 -201 239 -290 305 -298 219 -726
287 -1073 171 l-52 -18 19 26 c36 50 214 213 305 279 90 65 316 193 390 220
17 6 68 25 114 41 101 38 189 61 286 77 17 3 36 7 43 9 7 3 47 7 90 11 42 4
79 8 81 10 6 5 352 -4 386 -10z m-1070 -916 c377 -103 641 -420 670 -805 9
-118 14 -133 52 -170 42 -41 89 -52 144 -36 79 24 104 71 113 212 24 372 299
701 671 800 87 23 294 34 363 18 20 -4 52 -10 70 -14 90 -15 232 -83 328 -156
176 -133 291 -310 328 -504 24 -129 25 -141 32 -337 l7 -178 -114 -1 c-136 -1
-171 -4 -269 -26 -41 -9 -78 -17 -82 -17 -3 -1 -10 -4 -14 -8 -4 -5 -14 -8
-22 -8 -30 0 -208 -95 -282 -151 -238 -180 -397 -467 -415 -748 -2 -42 -7
-115 -10 -163 -15 -265 -103 -449 -265 -554 -36 -23 -83 -49 -105 -58 -39 -17
-188 -56 -212 -56 -10 0 -13 44 -13 188 l0 189 136 137 c169 170 188 210 143
297 -14 29 -32 46 -62 60 -89 40 -123 26 -255 -104 -56 -56 -106 -103 -111
-105 -4 -1 -50 41 -102 93 -52 53 -111 105 -131 116 -116 60 -238 -36 -213
-167 5 -29 34 -65 151 -183 l144 -146 0 -188 0 -188 -27 4 c-111 18 -208 51
-282 94 -65 37 -161 139 -197 208 -57 108 -89 251 -94 413 -2 104 -11 189 -25
252 -30 133 -122 326 -204 425 -150 181 -360 313 -577 364 -117 27 -147 30
-283 31 l-114 0 6 183 c4 100 9 200 13 222 5 33 29 161 37 200 7 29 71 151
108 207 129 189 373 345 591 374 24 4 45 8 46 9 2 2 59 2 125 0 86 -2 146 -9
202 -25z"/>
<path d="M1313 3003 c-32 -6 -90 -68 -98 -103 -10 -47 4 -104 34 -137 16 -18
98 -65 204 -118 158 -78 180 -86 217 -81 78 11 125 54 136 123 7 51 -8 94 -45
129 -14 14 -103 63 -198 109 -164 81 -190 90 -250 78z"/>
<path d="M3543 2919 c-199 -98 -222 -118 -230 -193 -10 -87 48 -155 136 -161
44 -3 65 4 217 81 93 46 181 96 196 110 55 51 59 145 9 202 -22 27 -81 52
-118 52 -16 0 -110 -41 -210 -91z"/>
</g>
</svg>
